<svg width="42" height="30" viewBox="0 0 42 30" fill="none" xmlns="http://www.w3.org/2000/svg">
<g clip-path="url(#clip0_233_16208)">
<rect width="42" height="30" rx="4" fill="#FF5C21"/>
<path d="M25.2102 26.0304C24.5587 26.1603 23.8831 25.6287 23.8589 24.979C23.8107 24.4356 24.2209 23.9158 24.7638 23.7976C25.3791 23.6441 26.0427 24.0812 26.1513 24.6836C26.2961 25.2861 25.8255 25.9477 25.2102 26.0304ZM16.6682 26.0304C16.0167 26.1367 15.3772 25.6051 15.3531 24.9672C15.3169 24.4356 15.715 23.9276 16.2338 23.7976C16.8371 23.6322 17.5248 24.0575 17.6454 24.66C17.8023 25.2861 17.3197 25.9595 16.6682 26.0304ZM15.6185 10.1178C16.1252 12.3859 16.632 14.6659 17.1387 16.9459C20.3601 16.9459 23.5814 16.9459 26.7907 16.9459C27.6353 14.6659 28.4798 12.3977 29.3123 10.1178C24.7517 10.1178 20.1791 10.1178 15.6185 10.1178ZM31.1462 9.6216C30.1207 12.3977 29.0952 15.1621 28.0696 17.9264C27.9731 18.2335 27.6594 18.4698 27.3216 18.458C23.5694 18.4698 19.8171 18.458 16.0649 18.4698C15.6426 18.4816 15.2565 18.7533 15.0756 19.1196C14.6895 19.8402 15.3289 20.7734 16.1494 20.738C19.793 20.738 23.4487 20.738 27.1044 20.738C27.5629 20.7025 27.9731 21.116 27.9128 21.5649C27.8766 21.9548 27.5026 22.2737 27.1044 22.2501C23.4246 22.2383 19.7568 22.2501 16.077 22.2501C15.3169 22.2383 14.5568 21.8839 14.0621 21.305C13.3623 20.5135 13.2176 19.2968 13.7243 18.3635C14.0862 17.6547 14.786 17.1585 15.5702 16.9695C14.7619 13.4137 13.9777 9.85787 13.1934 6.31386C12.373 6.31386 11.5526 6.31386 10.7322 6.31386C10.2375 6.33749 9.82729 5.80589 9.98414 5.34517C10.0807 5.00259 10.4426 4.77812 10.8046 4.80175C11.806 4.80175 12.8073 4.80175 13.8208 4.80175C14.1828 4.78994 14.5206 5.07346 14.5809 5.41605C14.8222 6.46744 15.0514 7.53064 15.2928 8.59385C20.3359 8.59385 25.3912 8.58203 30.4344 8.59385C30.9411 8.58203 31.3513 9.13726 31.1462 9.6216Z" fill="white"/>
</g>
<defs>
<clipPath id="clip0_233_16208">
<rect width="42" height="30" rx="4" fill="white"/>
</clipPath>
</defs>
</svg>
