<svg width="16" height="16" viewBox="0 0 16 16" fill="none" xmlns="http://www.w3.org/2000/svg">
<path d="M7.94667 0H8.08C8.45333 0.0266445 8.8 0.199831 9.06667 0.466276C11.1467 2.54454 13.2267 4.62281 15.3067 6.70108C15.48 6.88759 15.6933 7.06078 15.8133 7.28726C15.9333 7.50041 15.9867 7.74022 16 7.99334V8.01998C15.9867 8.37968 15.8533 8.7527 15.6 9.01915C15.4 9.2323 15.1333 9.39217 14.84 9.44546C14.6533 9.48543 14.4667 9.48543 14.28 9.48543C14.28 11.0042 14.28 12.5229 14.28 14.0416C14.28 14.2415 14.28 14.4546 14.24 14.6545C14.1333 15.1474 13.7867 15.587 13.3333 15.8135C13.1067 15.9334 12.8533 15.9867 12.6 16H9.96C9.8 15.9734 9.65334 15.8801 9.58667 15.7336C9.53334 15.6137 9.54667 15.4804 9.54667 15.3472C9.54667 14.1482 9.54667 12.9492 9.54667 11.7502C9.54667 11.3505 9.18666 10.9908 8.78666 10.9775C8.26666 10.9775 7.74666 10.9775 7.22666 10.9775C6.82666 10.9775 6.46666 11.3372 6.46666 11.7502C6.46666 13.0158 6.46666 14.2681 6.46666 15.5337C6.46666 15.7735 6.28 15.9734 6.05333 16H3.4C2.96 15.9867 2.53333 15.8002 2.22666 15.4938C1.90666 15.174 1.72 14.7344 1.72 14.2814C1.72 12.6828 1.72 11.0708 1.72 9.4721C1.44 9.48543 1.13333 9.47211 0.88 9.33888C0.386666 9.12573 0.04 8.63281 0 8.08659V7.94005C0.0133333 7.5537 0.186665 7.18068 0.466665 6.91424C2.58666 4.796 4.70667 2.67776 6.81333 0.572851C6.93333 0.466273 7.04 0.333054 7.17333 0.253121C7.38666 0.0932538 7.66667 0.0133222 7.94667 0Z" fill="#797979"/>
</svg>
