<svg width="24" height="24" viewBox="0 0 24 24" fill="none" xmlns="http://www.w3.org/2000/svg">
<path d="M18.1434 18.0844C14.0345 18.0844 9.92552 18.0844 5.80323 18.0844C5.45637 18.0985 5.13619 17.802 5.09617 17.4349C5.04281 17.0537 5.28293 16.6725 5.62979 16.5878C5.6965 16.5736 5.77654 16.5736 5.85658 16.5736C9.95219 16.5736 14.0478 16.5736 18.1301 16.5736C18.517 16.5454 18.8905 16.9125 18.8772 17.3361C18.8905 17.7596 18.5303 18.1126 18.1434 18.0844ZM18.677 14.5687C18.6237 14.7099 18.5036 14.8511 18.3435 14.837C17.463 14.837 16.5959 14.837 15.7154 14.837C15.5019 14.837 15.2618 14.8229 15.1017 14.6534C15.0083 14.5687 14.995 14.4275 14.995 14.3005C14.995 12.3521 14.995 10.4037 14.995 8.44113C14.9817 8.28582 15.0484 8.1305 15.1818 8.05991C15.4886 7.89048 15.8622 7.89048 16.169 8.05991C16.2891 8.11638 16.3691 8.25758 16.3558 8.39877C16.3558 10.1213 16.3558 11.8438 16.3558 13.5522C17.0228 13.5522 17.6765 13.5522 18.3435 13.5522C18.5169 13.5381 18.637 13.6934 18.6904 13.8628C18.7571 14.1028 18.7571 14.357 18.677 14.5687ZM12.0734 10.3613C12.6604 10.6578 13.274 10.9119 13.7543 11.3779C14.0345 11.7026 14.2479 12.1262 14.2879 12.578C14.3413 13.0862 14.2746 13.6228 13.9944 14.0463C13.6876 14.5264 13.1673 14.8088 12.647 14.8935C11.94 15.0064 11.1662 14.9217 10.5525 14.5123C10.3391 14.3711 10.1123 14.1734 10.0322 13.9051C9.9522 13.6228 10.0723 13.3263 10.2323 13.1145C10.3524 12.9592 10.5525 12.8745 10.726 12.9592C10.9394 13.0439 11.0862 13.2275 11.2729 13.3686C11.6865 13.6934 12.2735 13.764 12.7137 13.4675C12.9272 13.3263 12.9805 12.9874 12.8605 12.7615C12.7537 12.5356 12.527 12.4085 12.3402 12.2673C11.9533 12.0414 11.5397 11.8438 11.1529 11.632C10.6459 11.3355 10.2457 10.799 10.1657 10.1777C10.1123 9.62711 10.2057 9.00588 10.5792 8.59644C10.9261 8.22934 11.4063 8.01756 11.8733 7.93284C12.3135 7.86225 12.7671 7.87637 13.194 7.9752C13.5008 8.03167 13.8344 8.1305 14.0345 8.41288C14.2079 8.66702 14.1145 9.00587 13.9811 9.24589C13.8877 9.44356 13.6743 9.58476 13.4742 9.50005C13.2207 9.40121 12.9939 9.26001 12.7271 9.20354C12.4469 9.14706 12.1534 9.14707 11.8733 9.23178C11.6465 9.3165 11.433 9.57065 11.5131 9.83891C11.6465 10.1072 11.8599 10.2484 12.0734 10.3613ZM7.76432 10.5449C8.21791 10.7708 8.68483 11.0108 9.07171 11.3637C9.35186 11.6885 9.56532 12.0979 9.61868 12.5356C9.67205 13.0439 9.61869 13.5804 9.35187 14.0181C9.04503 14.5123 8.51141 14.8088 7.97778 14.8935C7.27072 15.0064 6.52363 14.9076 5.90996 14.5264C5.68317 14.3852 5.45636 14.1875 5.37632 13.9051C5.29627 13.6228 5.41635 13.3404 5.57644 13.1286C5.69651 12.9733 5.90996 12.8745 6.09673 12.9733C6.36354 13.1004 6.5503 13.3686 6.81712 13.5098C7.21734 13.7357 7.73763 13.7357 8.11117 13.4534C8.36465 13.2274 8.31129 12.7897 8.07115 12.578C7.65759 12.2109 7.15065 12.0132 6.68372 11.745C6.09673 11.4767 5.60311 10.8978 5.52307 10.1919C5.4697 9.62712 5.54976 9.00588 5.94998 8.59644C6.29684 8.24346 6.75042 8.0458 7.21735 7.96109C7.65759 7.89049 8.11118 7.90461 8.53809 8.00344C8.84492 8.05992 9.17843 8.15875 9.37854 8.42701C9.55197 8.66704 9.47194 9.00587 9.35187 9.24589C9.27183 9.42944 9.0984 9.57064 8.91162 9.5424C8.71151 9.50004 8.55142 9.38709 8.36465 9.31649C8.03113 9.1753 7.67093 9.16119 7.32407 9.23178C7.16398 9.27414 7.01723 9.35886 6.92385 9.50005C6.83046 9.64124 6.83046 9.83889 6.92385 9.98008C7.1373 10.2766 7.47082 10.3895 7.76432 10.5449ZM9.32518 5.5185C8.96498 5.64557 8.53808 5.37732 8.44469 4.98199C8.33797 4.60078 8.5781 4.16308 8.92496 4.06425C9.28516 3.9513 9.69873 4.19132 9.79212 4.57253C9.92553 4.95374 9.68538 5.40554 9.32518 5.5185ZM6.47027 5.5185C6.11007 5.61733 5.70984 5.3632 5.62979 4.98199C5.52307 4.58666 5.77655 4.13485 6.16344 4.05014C6.53698 3.9513 6.93718 4.23369 7.00389 4.62902C7.08393 5.01023 6.83047 5.43378 6.47027 5.5185ZM3.70872 5.50439C3.33518 5.63146 2.9083 5.37731 2.82825 4.96786C2.72152 4.58665 2.96165 4.14897 3.32185 4.05014C3.68205 3.93719 4.09561 4.1772 4.18899 4.57253C4.28238 4.95374 4.05558 5.40555 3.70872 5.50439ZM22.5992 4.51606C22.5992 3.92307 22.3724 3.34418 21.9455 2.96297C21.5987 2.63824 21.1451 2.49705 20.6781 2.49705C14.9149 2.49705 9.15176 2.49705 3.38856 2.49705C3.22847 2.49705 3.05503 2.51116 2.89494 2.5394C2.26792 2.66647 1.7343 3.17476 1.52084 3.82423C1.41412 4.16308 1.41412 4.53018 1.41412 4.86904C1.41412 9.71183 1.41412 14.5546 1.41412 19.3974C1.41412 19.6374 1.44081 19.8775 1.50751 20.1034C1.68094 20.6964 2.12118 21.1764 2.66815 21.3599C2.96164 21.4729 3.26848 21.4588 3.56198 21.4588C9.28515 21.4588 14.995 21.4588 20.7182 21.4588C21.2785 21.4729 21.8388 21.1905 22.1857 20.7246C22.4658 20.3575 22.5992 19.8775 22.5859 19.3974C22.5992 14.4417 22.5992 9.47181 22.5992 4.51606ZM23.3997 21.5294C22.9194 22.2494 22.1856 22.7577 21.3852 22.9271C21.0117 23.0119 20.6248 22.9977 20.2513 22.9977C14.8082 22.9977 9.37854 22.9977 3.93551 22.9977C3.56197 22.9977 3.18845 23.0119 2.82825 22.9695C1.93442 22.8565 1.10728 22.3059 0.586996 21.5153C0.226796 20.9646 0.0266815 20.301 0 19.6233V4.389C0.0266815 3.44303 0.413567 2.52529 1.06726 1.90405C1.6676 1.31106 2.46805 0.986323 3.28183 1.00044C8.99167 1.00044 14.6882 1.00044 20.3846 1.00044C20.7182 1.00044 21.0384 1.00045 21.3719 1.07104C22.1456 1.22635 22.8527 1.70638 23.333 2.38409C23.7465 2.96297 23.9733 3.66893 24 4.389V19.6233C23.9733 20.2869 23.7732 20.9646 23.3997 21.5294Z" fill="black"/>
</svg>
