<svg width="19" height="23" viewBox="0 0 19 23" fill="none" xmlns="http://www.w3.org/2000/svg">
<path d="M16.6109 9.09059H14.0949V13.1594C14.0949 13.8192 14.6597 14.3568 15.3529 14.3568C16.0461 14.3568 16.6109 13.8192 16.6109 13.1594V9.09059ZM16.6109 6.21922H14.0949V7.66102H16.6109V6.21922ZM16.0974 15.7008V20.5882H17.8561V22.03H12.824V20.5882H14.5827V15.7008C13.4274 15.3831 12.5673 14.369 12.5673 13.1716V4.80187H18.1V13.1716C18.1128 14.369 17.2656 15.3831 16.0974 15.7008ZM7.04742 16.2751H4.53141V17.7047H7.04742V16.2751ZM3.0295 19.1464V14.8455H8.56218V19.1464H3.0295ZM10.0641 15.5542C10.0641 13.7214 9.3324 12.9028 8.48516 11.9497C8.21559 11.6443 7.92034 11.3266 7.66361 10.96L5.78942 12.7439L3.91525 10.96C3.64567 11.3266 3.36326 11.6443 3.09369 11.9497C2.24645 12.9028 1.51474 13.7214 1.51474 15.5542V20.576H10.0641V15.5542ZM6.54679 7.41664V3.8244H5.03205V7.41664C5.03205 8.30859 4.878 9.0295 4.64694 9.6282L5.77659 10.7034L6.90622 9.6282C6.68799 9.0295 6.54679 8.30859 6.54679 7.41664ZM6.80354 1.44178H4.78814V2.39482H6.80354V1.44178ZM0 22.0178V15.5542C0 13.196 1.02694 12.0475 1.93836 11.0211C2.78559 10.0681 3.51729 9.24941 3.51729 7.41664V3.8244H3.26055V0H8.2926V3.8244H8.03587V7.40442C8.03587 9.2372 8.76756 10.0558 9.61479 11.0089C10.5262 12.023 11.5532 13.1838 11.5532 15.542V22.0056H0V22.0178Z" fill="#35393E"/>
</svg>
