<svg width="32" height="32" viewBox="0 0 32 32" fill="none" xmlns="http://www.w3.org/2000/svg">
<path d="M23.56 25.3726C21.4675 25.3726 19.375 25.3726 17.2825 25.3726C16.9854 25.3985 16.7013 25.0626 16.6496 24.6106C16.585 24.1326 16.8175 23.616 17.1404 23.5385C17.8638 23.4997 18.5871 23.5385 19.3104 23.5256C20.7183 23.5256 22.1392 23.5256 23.5471 23.5256C23.87 23.5126 24.1542 23.9518 24.1542 24.4426C24.1671 24.9335 23.8829 25.3856 23.56 25.3726ZM26.8667 21.6785C23.6633 21.6785 20.4471 21.6785 17.2437 21.6785C16.9079 21.6914 16.6108 21.2006 16.6496 20.6968C16.6625 20.206 16.9725 19.8056 17.2825 19.8314C20.4729 19.8314 23.6763 19.8314 26.8667 19.8314C27.1637 19.8185 27.4092 20.1801 27.4738 20.6193V20.8518C27.435 21.3039 27.1637 21.6914 26.8667 21.6785ZM12.09 19.3018C12.1029 19.1726 11.9737 19.121 11.8704 19.1339C9.85542 19.1468 7.85333 19.121 5.83833 19.1468C5.735 19.1597 5.70917 19.276 5.72208 19.3664C5.72208 21.3943 5.72208 23.4222 5.72208 25.4501C5.70917 25.5793 5.85125 25.631 5.95458 25.6181C7.94375 25.6181 9.94583 25.6181 11.935 25.6181C12.0513 25.631 12.1158 25.5018 12.1029 25.3985C12.09 23.3576 12.09 21.3297 12.09 19.3018ZM12.9812 27.1422C12.6454 27.3618 12.2579 27.4522 11.8704 27.4522C9.88125 27.4393 7.87917 27.4522 5.89 27.4522C5.27 27.4522 4.66292 27.1551 4.30125 26.6514C4.08167 26.3543 3.9525 25.9926 3.90083 25.631V19.0693C3.96541 18.7076 4.09458 18.346 4.32708 18.0489C4.70166 17.5581 5.29583 17.261 5.90292 17.2739C7.89208 17.261 9.89417 17.2739 11.8833 17.2739C12.3871 17.261 12.8908 17.4418 13.2654 17.7776C13.7046 18.1651 13.95 18.7593 13.9371 19.3535C13.9371 21.3814 13.9371 23.3964 13.9371 25.4243C13.9113 26.1218 13.5496 26.7935 12.9812 27.1422ZM23.6762 11.9522C23.5083 11.991 23.3404 11.9651 23.1854 11.9781C21.2092 11.9781 19.2329 11.9781 17.2567 11.9781C16.9983 11.991 16.7658 11.7068 16.6883 11.3451C16.5721 10.8414 16.8046 10.2343 17.1533 10.1439C17.2308 10.131 17.3083 10.131 17.3729 10.131C19.4396 10.131 21.5063 10.131 23.5729 10.131C23.8829 10.1181 24.1542 10.5314 24.1671 10.9964C24.18 11.4356 23.9604 11.8747 23.6762 11.9522ZM27.1379 8.40014C27.0087 8.51639 26.8538 8.50347 26.7117 8.50347C23.5729 8.50347 20.4213 8.50347 17.2825 8.50347C17.1017 8.51639 16.9208 8.41305 16.8046 8.20639C16.6237 7.92222 16.5979 7.45722 16.7271 7.12139C16.8304 6.83722 17.0371 6.65639 17.2437 6.65639C20.4471 6.65639 23.6633 6.65639 26.8667 6.65639C27.1637 6.64347 27.4092 7.00514 27.4738 7.4443V7.6768C27.435 7.97389 27.3187 8.25806 27.1379 8.40014ZM12.09 5.89431C12.1029 5.76514 11.9608 5.70055 11.8575 5.72639C9.8425 5.72639 7.84042 5.71347 5.82542 5.7393C5.72208 5.75222 5.70917 5.86847 5.70917 5.95889C5.70917 7.96097 5.70917 9.97597 5.70917 11.9781C5.69625 12.0814 5.74792 12.2106 5.87708 12.1976C7.89208 12.1976 9.92 12.2106 11.935 12.1976C12.0513 12.2106 12.1158 12.0814 12.09 11.9781C12.09 9.95014 12.09 7.92222 12.09 5.89431ZM12.0383 14.0447C9.98458 14.0576 7.93083 14.0447 5.87708 14.0447C5.28292 14.0576 4.70166 13.7735 4.32708 13.3085C4.06875 12.9985 3.93958 12.6239 3.875 12.2235V5.70056C3.93958 5.24847 4.1075 4.82222 4.43042 4.49931C4.805 4.11181 5.33458 3.87931 5.86417 3.87931C7.68542 3.87931 9.51958 3.87931 11.3408 3.87931C11.7671 3.87931 12.1933 3.84055 12.5938 3.99555C13.3429 4.2668 13.8983 5.02889 13.8983 5.84264C13.8983 7.92222 13.9112 10.0018 13.8983 12.0943C13.9112 13.1018 13.0329 14.0189 12.0383 14.0447Z" fill="#797979"/>
</svg>
