<svg width="22" height="23" viewBox="0 0 22 23" fill="none" xmlns="http://www.w3.org/2000/svg">
<path d="M14.0448 13.2584C14.057 13.6861 14.0814 14.126 14.1059 14.5537C16.2694 14.5537 18.4208 14.5537 20.5843 14.5537C20.6088 14.126 20.621 13.6983 20.6454 13.2707C18.4452 13.2584 16.245 13.2707 14.0448 13.2584ZM14.387 20.7247C16.3672 20.7247 18.3352 20.7247 20.3154 20.7247C20.3887 19.0995 20.4621 17.4742 20.5232 15.849C18.4085 15.849 16.2817 15.849 14.167 15.849C14.2281 17.4742 14.3259 19.0995 14.387 20.7247ZM21.55 22.02H13.1647C13.0058 18.6718 12.8591 15.3236 12.7002 11.9754C15.7927 11.9754 18.8975 11.9754 21.99 11.9754V12.0853C21.8311 15.3969 21.6966 18.7084 21.55 22.02ZM6.80847 7.58847C6.80847 6.35427 6.80847 5.12008 6.80847 3.88588C6.06283 3.88588 5.3172 3.88588 4.57157 3.88588C4.57157 5.12008 4.57157 6.36649 4.57157 7.60069C3.49591 8.62715 2.40802 9.65361 1.32014 10.6801C1.35681 11.1078 1.38126 11.5477 1.41793 11.9754C4.2171 11.9754 7.01627 11.9754 9.81544 11.9754C9.85212 11.5477 9.88879 11.1078 9.91323 10.6678C8.89869 9.64139 7.84746 8.61493 6.80847 7.58847ZM4.58381 1.28307C4.58381 1.72299 4.58381 2.15068 4.58381 2.59059C5.32944 2.59059 6.06283 2.59059 6.80847 2.59059L6.8207 2.57837C6.8207 2.15068 6.8207 1.72299 6.8207 1.28307C6.07507 1.28307 5.32944 1.29529 4.58381 1.28307ZM1.87019 17.6087C4.376 17.6087 6.88181 17.6087 9.3754 17.6087C9.49763 16.1667 9.60764 14.7126 9.71766 13.2584C6.99182 13.2584 4.25376 13.2584 1.52793 13.2584C1.65017 14.7126 1.76018 16.1545 1.87019 17.6087ZM2.12689 20.7247C4.46157 20.7247 6.80847 20.7247 9.14315 20.7247C9.19205 20.1137 9.24093 19.5027 9.28983 18.8917C6.85736 18.8917 4.41267 18.8917 1.9802 18.8917C2.0291 19.5027 2.07799 20.1137 2.12689 20.7247ZM10.341 22.02H0.928985C0.660069 18.5252 0.378932 15.0425 0.110016 11.5477C0.0733456 11.1078 0.0488938 10.6678 0 10.2402V10.1668C1.10011 9.12816 2.20022 8.08948 3.2881 7.0508C3.2881 4.70461 3.2881 2.35841 3.2881 0H8.10415C8.10415 2.34619 8.10415 4.70461 8.10415 7.0508C9.15537 8.08948 10.2188 9.12816 11.27 10.1668C10.9522 14.1138 10.6466 18.073 10.341 22.02Z" fill="#35393E"/>
</svg>
